# xmcd
#
# Track frame offsets: 
#        150
#        9675
#        22020
#        36325
#        48787
#        60702
#        72607
#        83060
#        96152
#        107107
#
# Disc length: 1603 seconds
#
# Revision: 2
# Processed by: cddbd v1.5.2PL0 Copyright (c) Steve Scherf et al.
# Submitted via: ExactAudioCopy v0.90b3
#
DISCID=8406410a
DTITLE=George Jones - Golden Hits
DYEAR=1989
DGENRE=Country
TTITLE0=The Race Is On
TTITLE1=She Thinks I Still Care
TTITLE2=A Good Year For The Roses
TTITLE3=Take Me
TTITLE4=I'll Follow You Up To Our Cloud
TTITLE5=White Lightnin'
TTITLE6=Walk Through This World With Me
TTITLE7=When The Grass Grows Over Me
TTITLE8=Tender Years
TTITLE9=Things Have Gone To Pieces
EXTD=
EXTT0=
EXTT1=
EXTT2=
EXTT3=
EXTT4=
EXTT5=
EXTT6=
EXTT7=
EXTT8=
EXTT9=
PLAYORDER=
